<!-- Generated by IcoMoon.io -->
<svg version="1.1" xmlns="http://www.w3.org/2000/svg" width="36" height="34" viewBox="0 0 36 34">
<title>calendar</title>
<path d="M1.141 8.639c0-2.477 1.997-4.502 4.481-4.502h24.377c2.484 0 4.481 2.022 4.481 4.502v19.767c0 2.477-1.997 4.502-4.481 4.502h-24.377c-2.484 0-4.481-2.022-4.481-4.502v-19.767zM4.109 8.639v19.767c0 0.85 0.677 1.534 1.512 1.534h24.377c0.835 0 1.512-0.687 1.512-1.534v-19.767c0-0.85-0.677-1.534-1.512-1.534h-24.377c-0.835 0-1.512 0.687-1.512 1.534zM4.109 15.11v-2.967l27.401-0.002v2.968h-27.401zM8.675 1.448c0.825 0 1.483 0.666 1.484 1.488l0.001 6.158c0 0.831-0.664 1.488-1.484 1.488-0.825 0-1.484-0.666-1.484-1.488v-6.158c0-0.831 0.664-1.488 1.483-1.488zM13.242 1.448c0.825 0 1.483 0.666 1.484 1.488l0.001 6.158c0 0.831-0.664 1.488-1.484 1.488-0.825 0-1.484-0.666-1.484-1.488v-6.158c0-0.831 0.664-1.488 1.483-1.488zM22.376 1.448c0.825 0 1.483 0.666 1.484 1.488l0.001 6.158c0 0.831-0.664 1.488-1.484 1.488-0.825 0-1.484-0.666-1.484-1.488v-6.158c0-0.831 0.664-1.488 1.483-1.488zM26.943 1.442c0.825 0 1.483 0.666 1.484 1.488l0.001 6.158c0 0.831-0.664 1.488-1.484 1.488-0.825 0-1.484-0.666-1.484-1.488v-6.158c0-0.831 0.664-1.488 1.483-1.488z"></path>
</svg>
