<!-- Generated by IcoMoon.io -->
<svg version="1.1" xmlns="http://www.w3.org/2000/svg" width="34" height="34" viewBox="0 0 34 34">
<title>close</title>
<path d="M14.854 17l-5.655 5.655c-0.482 0.482-0.1 1.646 0.2 1.946s1.464 0.682 1.946 0.2l5.655-5.655 5.655 5.655c0.482 0.482 1.646 0.1 1.946-0.2s0.682-1.464 0.2-1.946l-5.655-5.655 5.655-5.655c0.482-0.482 0.1-1.646-0.2-1.946s-1.464-0.682-1.946-0.2l-5.655 5.655-5.655-5.655c-0.482-0.482-1.646-0.1-1.946 0.2s-0.682 1.464-0.2 1.946l5.655 5.655z"></path>
</svg>
