<!-- Generated by IcoMoon.io -->
<svg version="1.1" xmlns="http://www.w3.org/2000/svg" width="34" height="34" viewBox="0 0 34 34">
<title>close--circle-o</title>
<path d="M17 34c4.509 0 8.833-1.791 12.021-4.979s4.979-7.512 4.979-12.021c0-9.389-7.611-17-17-17s-17 7.611-17 17c0 9.389 7.611 17 17 17zM3.091 17c0-7.682 6.227-13.909 13.909-13.909s13.909 6.227 13.909 13.909c0 7.682-6.227 13.909-13.909 13.909s-13.909-6.227-13.909-13.909zM14.84 17l-5.691 5.691c-0.485 0.485-0.101 1.657 0.201 1.959s1.473 0.686 1.959 0.201l5.691-5.691 5.691 5.691c0.485 0.485 1.657 0.101 1.959-0.201s0.686-1.473 0.201-1.959l-5.691-5.691 5.691-5.691c0.485-0.485 0.101-1.657-0.201-1.959s-1.473-0.686-1.959-0.201l-5.691 5.691-5.691-5.691c-0.485-0.485-1.657-0.101-1.959 0.201s-0.686 1.473-0.201 1.959l5.691 5.691z"></path>
</svg>
