<!-- Generated by IcoMoon.io -->
<svg version="1.1" xmlns="http://www.w3.org/2000/svg" width="34" height="34" viewBox="0 0 34 34">
<title>config-gear</title>
<path d="M28.927 12.782l-0.582-1.455 1.455-2.618c0.291-0.582 0.145-1.455-0.291-1.891l-2.473-2.473c-0.436-0.436-1.164-0.582-1.891-0.291l-2.618 1.455-1.455-0.582-0.873-2.764c-0.291-0.727-0.873-1.164-1.455-1.164h-3.491c-0.727 0-1.309 0.436-1.309 1.164l-1.018 2.909c-0.436 0-1.018 0.291-1.6 0.582l-2.473-1.455c-0.727-0.291-1.455-0.145-1.891 0.291l-2.473 2.473c-0.436 0.436-0.582 1.164-0.291 1.891l1.309 2.473c-0.145 0.436-0.436 1.018-0.582 1.6l-2.764 0.873c-0.727 0.291-1.164 0.873-1.164 1.455v3.491c0 0.727 0.436 1.309 1.164 1.455l2.764 0.873 0.727 1.6-1.455 2.473c-0.291 0.727-0.145 1.455 0.291 1.891l2.473 2.473c0.436 0.436 1.164 0.582 1.891 0.291l2.473-1.455 1.6 0.727 0.873 2.764c0.291 0.727 0.873 1.164 1.455 1.164h3.491c0.582 0 1.164-0.436 1.455-1.164l0.873-2.764 1.455-0.727 2.618 1.455c0.727 0.291 1.455 0.145 1.891-0.291l2.473-2.473c0.436-0.436 0.582-1.164 0.291-1.891l-1.455-2.473 0.582-1.6 2.909-0.873c0.727-0.291 1.164-0.873 1.164-1.455v-3.491c0-0.727-0.436-1.309-1.164-1.6l-2.909-0.873zM30.236 18.309l-3.491 1.018-1.164 2.909 1.745 3.2-1.891 1.891-3.2-1.745-2.909 1.164-1.018 3.491h-2.618l-1.018-3.491-2.909-1.164-3.2 1.745-1.891-1.891 1.745-3.2-1.164-2.909-3.491-1.018v-2.618l3.2-1.018 1.309-2.909-1.6-3.2 1.891-1.891 3.055 1.745 3.055-1.309 1.018-3.345h2.618l1.018 3.345 2.909 1.309 3.2-1.745 1.891 1.891-1.745 3.2 1.164 2.909 3.491 1.018v2.618z"></path>
</svg>
