<!-- Generated by IcoMoon.io -->
<svg version="1.1" xmlns="http://www.w3.org/2000/svg" width="34" height="34" viewBox="0 0 34 34">
<title>consulta</title>
<path d="M29.8 4.072v25.728h-25.728v-16.064c0-0.848-0.688-1.536-1.536-1.536s-1.536 0.688-1.536 1.536v17.6c0 0.848 0.688 1.536 1.536 1.536h28.8c0.848 0 1.536-0.688 1.536-1.536v-28.8c0-0.848-0.688-1.536-1.536-1.536h-28.8c-0.86 0-1.553 0.707-1.536 1.567l0.032 4.8c0.017 0.848 0.718 1.522 1.566 1.505s1.522-0.718 1.505-1.566v-3.105l25.696-0.128zM9 18.549l-1.6 6.355c0 0.848 0.688 1.536 1.536 1.536s1.536-0.688 1.536-1.536l1.6-6.355c0-0.848-0.688-1.536-1.536-1.536s-1.536 0.688-1.536 1.536zM15.464 13.011l-1.6 11.901c0 0.848 0.688 1.536 1.536 1.536s1.536-0.688 1.536-1.536l1.6-11.901c0-0.848-0.688-1.536-1.536-1.536s-1.536 0.688-1.536 1.536zM21.864 9l-1.6 15.912c0 0.848 0.688 1.536 1.536 1.536s1.536-0.688 1.536-1.536l1.6-15.912c0-0.848-0.688-1.536-1.536-1.536s-1.536 0.688-1.536 1.536z"></path>
</svg>
