<!-- Generated by IcoMoon.io -->
<svg version="1.1" xmlns="http://www.w3.org/2000/svg" width="34" height="34" viewBox="0 0 34 34">
<title>consulta--new</title>
<path d="M16.305 7.894l-12.605 0.063v2.7c0.015 0.738-0.571 1.347-1.309 1.362s-1.347-0.571-1.362-1.309l-0.028-4.174c-0.015-0.748 0.587-1.362 1.335-1.362h14.372c-0.257 0.863-0.397 1.775-0.403 2.72v0zM28.715 17.325v14.228c0 0.738-0.598 1.336-1.336 1.336h-25.043c-0.738 0-1.336-0.598-1.336-1.336v-15.304c0-0.738 0.598-1.336 1.336-1.336s1.336 0.598 1.336 1.336v13.969h22.372v-12.522c0.926 0 1.822-0.129 2.671-0.371v0zM7.957 20.434c0-0.738 0.598-1.336 1.336-1.336s1.336 0.598 1.336 1.336l-1.391 5.526c0 0.738-0.598 1.336-1.336 1.336s-1.336-0.598-1.336-1.336l1.391-5.526zM13.577 15.618c0-0.738 0.598-1.336 1.336-1.336s1.336 0.598 1.336 1.336l-1.391 10.349c0 0.738-0.598 1.336-1.336 1.336s-1.336-0.598-1.336-1.336l1.391-10.349zM19.143 12.13l-1.391 13.836c0 0.738 0.598 1.336 1.336 1.336s1.336-0.598 1.336-1.336l1.391-13.836c0-0.738-0.598-1.336-1.336-1.336s-1.336 0.598-1.336 1.336zM27.379 9.392h4.33c0.738 0 1.336-0.598 1.336-1.336s-0.598-1.336-1.336-1.336h-4.33v-4.33c0-0.738-0.598-1.336-1.336-1.336s-1.336 0.598-1.336 1.336v4.33h-4.33c-0.738 0-1.336 0.598-1.336 1.336s0.598 1.336 1.336 1.336h4.33v4.33c0 0.738 0.598 1.336 1.336 1.336s1.336-0.598 1.336-1.336v-4.33z"></path>
</svg>
