<!-- Generated by IcoMoon.io -->
<svg version="1.1" xmlns="http://www.w3.org/2000/svg" width="34" height="34" viewBox="0 0 34 34">
<title>data-grid</title>
<path d="M24.256 21.013h2.958c0.783 0 1.418-0.635 1.418-1.418s-0.635-1.418-1.418-1.418h-2.958c-0.783 0-1.418 0.635-1.418 1.418s0.635 1.418 1.418 1.418zM24.256 16.649h2.958c0.783 0 1.418-0.635 1.418-1.418s-0.635-1.418-1.418-1.418h-2.958c-0.783 0-1.418 0.635-1.418 1.418s0.635 1.418 1.418 1.418zM24.256 25.376h2.958c0.783 0 1.418-0.635 1.418-1.418s-0.635-1.418-1.418-1.418h-2.958c-0.783 0-1.418 0.635-1.418 1.418s0.635 1.418 1.418 1.418zM14.801 21.013h4.364c0.783 0 1.418-0.635 1.418-1.418s-0.635-1.418-1.418-1.418h-4.364c-0.783 0-1.418 0.635-1.418 1.418s0.635 1.418 1.418 1.418zM14.801 25.376h4.364c0.783 0 1.418-0.635 1.418-1.418s-0.635-1.418-1.418-1.418h-4.364c-0.783 0-1.418 0.635-1.418 1.418s0.635 1.418 1.418 1.418zM14.801 16.649h4.364c0.783 0 1.418-0.635 1.418-1.418s-0.635-1.418-1.418-1.418h-4.364c-0.783 0-1.418 0.635-1.418 1.418s0.635 1.418 1.418 1.418zM6.801 21.013h2.958c0.783 0 1.418-0.635 1.418-1.418s-0.635-1.418-1.418-1.418h-2.958c-0.783 0-1.418 0.635-1.418 1.418s0.635 1.418 1.418 1.418zM6.801 16.649h2.958c0.783 0 1.418-0.635 1.418-1.418s-0.635-1.418-1.418-1.418h-2.958c-0.783 0-1.418 0.635-1.418 1.418s0.635 1.418 1.418 1.418zM6.801 25.376h2.958c0.783 0 1.418-0.635 1.418-1.418s-0.635-1.418-1.418-1.418h-2.958c-0.783 0-1.418 0.635-1.418 1.418s0.635 1.418 1.418 1.418zM23.473 9.451v-3.36h-2.836v3.36h2.836zM14.018 9.451v-3.36h-2.836v3.36h2.836zM3.909 12.285h26.182v-2.836l-26.182 0.002v2.835zM3.909 7.556v18.887c0 0.812 0.647 1.465 1.445 1.465h23.292c0.798 0 1.445-0.656 1.445-1.465v-18.887c0-0.812-0.647-1.465-1.445-1.465h-23.292c-0.798 0-1.445 0.656-1.445 1.465zM1.073 7.556c0-2.367 1.908-4.302 4.281-4.302h23.292c2.374 0 4.281 1.932 4.281 4.302v18.887c0 2.367-1.908 4.302-4.281 4.302h-23.292c-2.374 0-4.281-1.932-4.281-4.302v-18.887z"></path>
</svg>
