<!-- Generated by IcoMoon.io -->
<svg version="1.1" xmlns="http://www.w3.org/2000/svg" width="34" height="34" viewBox="0 0 34 34">
<title>drill-down</title>
<path d="M27.201 28.195l2.197-2.197c0.664-0.664 1.74-0.664 2.404 0s0.664 1.74 0 2.404l-5.1 5.1c-0.664 0.664-1.74 0.664-2.404 0l-5.1-5.1c-0.664-0.664-0.664-1.74 0-2.404s1.74-0.664 2.404 0l2.199 2.199v-15.446c0-5.164-4.186-9.35-9.35-9.35s-9.35 4.186-9.35 9.35v0.85h-3.4v-0.85c0-7.042 5.709-12.75 12.75-12.75s12.75 5.709 12.75 12.75v15.445z"></path>
</svg>
