<!-- Generated by IcoMoon.io -->
<svg version="1.1" xmlns="http://www.w3.org/2000/svg" width="34" height="34" viewBox="0 0 34 34">
<title>edit</title>
<path d="M31.733 32.215h-10.591l-18.716-17.31c-1.752-1.62-1.834-4.333-0.179-6.062l4.331-4.524c1.644-1.717 4.373-1.774 6.088-0.13l19.055 18.261 0.013 9.766zM28.936 29.422l-0.007-5.78-18.196-17.438c-0.602-0.577-1.562-0.557-2.138 0.045l-4.331 4.524c-0.576 0.601-0.548 1.521 0.058 2.081l17.913 16.568h6.701zM5.759 16.013l3.708-3.708c0.545-0.545 1.429-0.545 1.975 0s0.545 1.429 0 1.975l-3.708 3.708-1.975-1.975zM14.818 32.156h-11.656c-0.771 0-1.396-0.625-1.396-1.396s0.625-1.396 1.396-1.396h11.656c0.771 0 1.396 0.625 1.396 1.396s-0.625 1.396-1.396 1.396z"></path>
</svg>
