<!-- Generated by IcoMoon.io -->
<svg version="1.1" xmlns="http://www.w3.org/2000/svg" width="34" height="34" viewBox="0 0 34 34">
<title>exclamation-circle</title>
<path d="M17 33c-8.837 0-16-7.163-16-16s7.163-16 16-16c8.837 0 16 7.163 16 16 0 4.243-1.686 8.313-4.686 11.314s-7.070 4.686-11.314 4.686zM3.909 17c0 7.23 5.861 13.091 13.091 13.091s13.091-5.861 13.091-13.091c0-7.23-5.861-13.091-13.091-13.091s-13.091 5.861-13.091 13.091zM17 25.727c0.803 0 1.455-0.651 1.455-1.455s-0.651-1.455-1.455-1.455c-0.803 0-1.455 0.651-1.455 1.455s0.651 1.455 1.455 1.455zM16.983 21.364c-0.402 0-1.437-0.428-1.437-0.957v-11.177c0-0.528 1.036-0.957 1.437-0.957s1.437 0.428 1.437 0.957v11.177c0 0.528-1.036 0.957-1.437 0.957z"></path>
</svg>
