<!-- Generated by IcoMoon.io -->
<svg version="1.1" xmlns="http://www.w3.org/2000/svg" width="34" height="34" viewBox="0 0 34 34">
<title>file</title>
<path d="M4.368 2.671c0-0.923 0.762-1.671 1.69-1.671h12.415c0.934 0 2.222 0.531 2.879 1.188l7.006 7.006c0.656 0.656 1.188 1.938 1.188 2.882v19.146c0 0.935-0.754 1.694-1.691 1.694h-21.797c-0.934 0-1.691-0.757-1.691-1.671v-28.574zM7.653 29.632h18.611l-0.042-18.568-6.737-6.737-11.832-0.042v25.347zM19.4 4.326h-3.284v8.386c0 0.931 0.76 1.686 1.669 1.686h8.437v-3.335l-6.821 0.042v-6.779z"></path>
</svg>
