<!-- Generated by IcoMoon.io -->
<svg version="1.1" xmlns="http://www.w3.org/2000/svg" width="34" height="34" viewBox="0 0 34 34">
<title>filter</title>
<path d="M6.84 6.12v5.080c0 0.47 0.266 1.302 0.538 1.684l6.162 6.758c0.589 0.828 1.026 2.192 1.026 3.203v3.642c0 0.071 0.108 0.193 0.181 0.202l4.687 0.926v-6.112c0-0.274 0.085-0.541 0.244-0.764l6.944-7.856c0.422-0.592 1.244-0.731 1.836-0.309s0.731 1.244 0.309 1.836l-6.7 7.513v7.183c0 0.792-0.694 1.405-1.48 1.306l-6.167-1.112c-1.386-0.174-2.486-1.412-2.486-2.815v-3.642c0-0.463-0.266-1.294-0.538-1.676l-6.162-6.758c-0.589-0.828-1.026-2.193-1.026-3.211v-6.397c0-0.727 0.589-1.316 1.316-1.316h22.953c0.727 0 1.316 0.589 1.316 1.316v2.701c0 0.727-0.589 1.316-1.316 1.316s-1.316-0.589-1.316-1.316v-1.384h-20.32z"></path>
</svg>
