<!-- Generated by IcoMoon.io -->
<svg version="1.1" xmlns="http://www.w3.org/2000/svg" width="38" height="34" viewBox="0 0 38 34">
<title>Folder</title>
<path d="M33.004 4.627c1.926 0 3.48 1.569 3.48 3.497v21.309c0 1.927-1.549 3.497-3.473 3.497h-28.468c-1.921 0-3.473-1.564-3.473-3.486v-24.886c0-1.931 1.562-3.486 3.49-3.486h11.368l3.556 3.556h13.52zM4.484 15.080v14.363c0 0.043 0.030 0.073 0.059 0.073h28.468c0.028 0 0.059-0.031 0.059-0.083v-21.309c0-0.050-0.033-0.083-0.067-0.083h-14.934l-3.556-3.556h-9.955c-0.046 0-0.076 0.030-0.076 0.073v7.11h11.627c0.943 0 1.707 0.764 1.707 1.707s-0.764 1.707-1.707 1.707h-11.627z"></path>
</svg>
