<!-- Generated by IcoMoon.io -->
<svg version="1.1" xmlns="http://www.w3.org/2000/svg" width="43" height="34" viewBox="0 0 43 34">
<title>Folder--open</title>
<path d="M36.758 11.253h1.134c1.973 0 3.591 1.475 3.095 3.437l-3.95 15.633c-0.395 1.562-2.055 2.601-3.752 2.601h-28.46c-1.254 0-2.366-0.597-2.879-1.537-0.374-0.556-0.593-1.227-0.593-1.948v-24.879c0-1.93 1.561-3.485 3.489-3.485h11.365l3.555 3.555h13.516c1.925 0 3.479 1.566 3.479 3.492v3.131zM33.345 11.253v-3.131c0-0.047-0.032-0.079-0.067-0.079h-14.929l-3.555-3.555h-9.952c-0.046 0-0.076 0.030-0.076 0.073 0 0 0.008 6.5 0.019 12.864l1.563-6.187c0.396-1.566 2.062-2.594 3.766-2.594h11.314l2.895 2.608h9.021zM7.113 22.145l-1.862 7.367h28.035c0.255 0 0.471-0.135 0.443-0.025l3.745-14.822h-14.46l-2.895-2.608h-10.003c-0.269 0-0.488 0.135-0.458 0.017l-1.694 6.703h11.981c0.942 0 1.706 0.764 1.706 1.706s-0.764 1.706-1.706 1.706h-12.441c-0.134 0-0.265-0.016-0.391-0.045v0z"></path>
</svg>
