<!-- Generated by IcoMoon.io -->
<svg version="1.1" xmlns="http://www.w3.org/2000/svg" width="34" height="34" viewBox="0 0 34 34">
<title>formula</title>
<path d="M4.324 28.986c-1.025 1.189-0.18 3.034 1.39 3.034h22.58c1.014 0 1.835-0.822 1.835-1.835v-4.714c0-1.014-0.822-1.835-1.835-1.835s-1.835 0.822-1.835 1.835v2.879h-16.74l9.149-10.613c0.594-0.689 0.594-1.708-0-2.397l-9.157-10.621h16.747v3.812c0 1.014 0.822 1.835 1.835 1.835s1.835-0.822 1.835-1.835v-5.647c0-1.014-0.822-1.835-1.835-1.835h-22.588c-1.57 0-2.415 1.844-1.39 3.034l10.74 12.457-10.732 12.449z"></path>
</svg>
