<!-- Generated by IcoMoon.io -->
<svg version="1.1" xmlns="http://www.w3.org/2000/svg" width="34" height="34" viewBox="0 0 34 34">
<title>goal</title>
<path d="M17 33.941c-0.784 0-1.419-0.635-1.419-1.419s0.635-1.419 1.419-1.419c7.789 0 14.103-6.314 14.103-14.103s-6.314-14.103-14.103-14.103c-7.789 0-14.103 6.314-14.103 14.103 0 0.784-0.635 1.419-1.419 1.419s-1.419-0.635-1.419-1.419c0-9.356 7.585-16.941 16.941-16.941s16.941 7.585 16.941 16.941c0 9.356-7.585 16.941-16.941 16.941zM17.059 18.521l-12.343 12.77c-0.545 0.564-1.443 0.579-2.007 0.034s-0.579-1.443-0.034-2.007l12.735-13.175h-2.625c-0.784 0-1.419-0.635-1.419-1.419s0.635-1.419 1.419-1.419h5.693c0.784 0 1.419 0.635 1.419 1.419v5.913c0 0.784-0.635 1.419-1.419 1.419s-1.419-0.635-1.419-1.419v-2.115z"></path>
</svg>
