<!-- Generated by IcoMoon.io -->
<svg version="1.1" xmlns="http://www.w3.org/2000/svg" width="34" height="34" viewBox="0 0 34 34">
<title>gridStrucutre--SPLIT2</title>
<path d="M4.671 26.506h24.659v-19.012h-24.659v19.012zM1 5.708c0-1.040 0.856-1.884 1.882-1.884h28.235c1.040 0 1.882 0.837 1.882 1.884v22.585c0 1.040-0.856 1.884-1.882 1.884h-28.235c-1.040 0-1.882-0.837-1.882-1.884v-22.585zM4.671 26.506h9.506v-19.012h-9.506v19.012zM2.882 3.824h14.514c1.341 0 2.427 0.837 2.427 1.884v22.585c0 1.040-1.060 1.884-2.427 1.884h-14.514v-26.353z"></path>
</svg>
