<!-- Generated by IcoMoon.io -->
<svg version="1.1" xmlns="http://www.w3.org/2000/svg" width="34" height="34" viewBox="0 0 34 34">
<title>gridStrucutre--1</title>
<path d="M23.494 9.1c0 1.014-0.822 1.835-1.835 1.835s-1.835-0.822-1.835-1.835v-1.606h-5.741v1.606c0 1.014-0.822 1.835-1.835 1.835s-1.835-0.822-1.835-1.835v-1.606h-5.741v19.012h5.741v-1.976c0-1.014 0.822-1.835 1.835-1.835s1.835 0.822 1.835 1.835v1.976h5.741v-1.976c0-1.014 0.822-1.835 1.835-1.835s1.835 0.822 1.835 1.835v1.976h5.835v-19.012h-5.835v1.606zM1 5.708c0-1.040 0.856-1.884 1.882-1.884h28.235c1.040 0 1.882 0.837 1.882 1.884v22.585c0 1.040-0.856 1.884-1.882 1.884h-28.235c-1.040 0-1.882-0.837-1.882-1.884v-22.585z"></path>
</svg>
