<!-- Generated by IcoMoon.io -->
<svg version="1.1" xmlns="http://www.w3.org/2000/svg" width="34" height="34" viewBox="0 0 34 34">
<title>link</title>
<path d="M18.789 10.614c-0.575 0.567-1.502 0.56-2.069-0.015s-0.56-1.502 0.015-2.069l5.913-5.827c2.186-2.186 5.731-2.19 7.912-0.009 2.182 2.182 2.175 5.729-0.009 7.912l-8.959 8.959c-2.186 2.186-5.731 2.19-7.912 0.009-0.571-0.571-0.571-1.497 0-2.069s1.497-0.571 2.069 0c1.037 1.037 2.73 1.035 3.775-0.009l8.959-8.959c1.043-1.043 1.046-2.737 0.009-3.775s-2.73-1.035-3.782 0.017l-5.92 5.834zM14.448 22.322c0.575-0.568 1.501-0.562 2.069 0.012s0.562 1.501-0.012 2.069l-5.899 5.828c-2.186 2.186-5.731 2.19-7.912 0.009-2.182-2.182-2.175-5.729 0.009-7.912l8.959-8.959c2.186-2.186 5.731-2.19 7.912-0.009 0.571 0.571 0.571 1.497 0 2.069s-1.497 0.571-2.069 0c-1.037-1.037-2.73-1.035-3.775 0.009l-8.959 8.959c-1.043 1.043-1.046 2.737-0.009 3.775s2.73 1.035 3.781-0.015l5.905-5.834z"></path>
</svg>
