<!-- Generated by IcoMoon.io -->
<svg version="1.1" xmlns="http://www.w3.org/2000/svg" width="34" height="34" viewBox="0 0 34 34">
<title>location</title>
<path d="M13.525 30.767c-0.299-0.42-0.631-0.897-0.989-1.423-1.021-1.501-2.042-3.093-2.998-4.71-0.778-1.318-1.479-2.597-2.086-3.822-1.545-3.122-2.413-5.742-2.413-7.812 0-6.605 5.355-11.96 11.96-11.96s11.96 5.355 11.96 11.96c0 2.070-0.868 4.69-2.413 7.812-0.606 1.225-1.308 2.505-2.086 3.822-0.955 1.617-1.976 3.21-2.998 4.71-0.358 0.526-0.69 1.003-0.989 1.423-0.181 0.254-0.311 0.434-0.355 0.492-1.617 2.345-4.583 2.349-6.222 0.025-0.074-0.1-0.2-0.275-0.372-0.517zM16.421 29.449c0.415 0.593 0.748 0.593 1.158 0 0.062-0.084 0.182-0.25 0.353-0.49 0.287-0.403 0.607-0.862 0.952-1.369 0.986-1.449 1.972-2.987 2.891-4.542 0.741-1.255 1.406-2.469 1.976-3.62 1.348-2.724 2.090-4.962 2.090-6.428 0-4.882-3.958-8.84-8.84-8.84s-8.84 3.958-8.84 8.84c0 1.466 0.741 3.704 2.090 6.428 0.57 1.151 1.235 2.365 1.976 3.62 0.918 1.555 1.904 3.093 2.891 4.542 0.345 0.507 0.665 0.966 0.952 1.369 0.171 0.24 0.291 0.406 0.353 0.49zM17 18.56c-3.071 0-5.56-2.489-5.56-5.56s2.489-5.56 5.56-5.56c3.071 0 5.56 2.489 5.56 5.56s-2.489 5.56-5.56 5.56zM17 15.44c1.348 0 2.44-1.092 2.44-2.44s-1.092-2.44-2.44-2.44c-1.348 0-2.44 1.092-2.44 2.44s1.092 2.44 2.44 2.44z"></path>
</svg>
