<!-- Generated by IcoMoon.io -->
<svg version="1.1" xmlns="http://www.w3.org/2000/svg" width="34" height="34" viewBox="0 0 34 34">
<title>menu-dots</title>
<path d="M13.444 15.23c0-0.986 0.795-1.785 1.785-1.785h3.362c0.986 0 1.785 0.795 1.785 1.785v3.362c0 0.986-0.795 1.785-1.785 1.785h-3.362c-0.986 0-1.785-0.795-1.785-1.785v-3.362zM13.444 27.674c0-0.986 0.795-1.785 1.785-1.785h3.362c0.986 0 1.785 0.795 1.785 1.785v3.362c0 0.986-0.795 1.785-1.785 1.785h-3.362c-0.986 0-1.785-0.795-1.785-1.785v-3.362zM13.444 2.786c0-0.986 0.795-1.785 1.785-1.785h3.362c0.986 0 1.785 0.795 1.785 1.785v3.362c0 0.986-0.795 1.785-1.785 1.785h-3.362c-0.986 0-1.785-0.795-1.785-1.785v-3.362z"></path>
</svg>
