<!-- Generated by IcoMoon.io -->
<svg version="1.1" xmlns="http://www.w3.org/2000/svg" width="28" height="34" viewBox="0 0 28 34">
<title>notify</title>
<path d="M22.766 21.911c-0.853 0-1.279-0.426-1.279-1.279v-6.824c-0-0.961-0.185-1.886-0.553-2.774s-0.892-1.672-1.572-2.351c-0.68-0.68-1.464-1.203-2.352-1.571s-1.813-0.552-2.774-0.552c-0.961 0-1.886 0.184-2.774 0.552s-1.672 0.891-2.352 1.571c-0.68 0.68-1.204 1.463-1.572 2.351s-0.552 1.813-0.553 2.774v6.824c0 0.853-0.426 1.279-1.279 1.279s-1.279-0.426-1.279-1.279v-6.824c0-1.301 0.25-2.551 0.748-3.753s1.207-2.262 2.127-3.181c0.92-0.919 1.98-1.628 3.182-2.125s2.453-0.746 3.753-0.746c1.301 0 2.552 0.249 3.753 0.746s2.262 1.206 3.182 2.125c0.92 0.919 1.629 1.98 2.127 3.181s0.747 2.452 0.748 3.753v6.824c0 0.853-0.426 1.279-1.279 1.279zM26.178 27.882h-23.883c-0.495 0.001-0.866-0.214-1.112-0.643s-0.244-0.858 0.007-1.284l3.497-5.971c0.229-0.466 0.602-0.704 1.121-0.715s0.902 0.211 1.151 0.666c0.248 0.455 0.228 0.898-0.062 1.328l-2.371 4.060h19.444l-2.329-4.056c-0.247-0.427-0.247-0.854-0-1.281s0.616-0.64 1.109-0.64c0.493 0 0.863 0.214 1.109 0.641l3.412 5.971c0.247 0.424 0.249 0.849 0.007 1.276s-0.608 0.643-1.099 0.648zM14.236 33c-1.649 0-3.056-0.583-4.222-1.749s-1.749-2.573-1.749-4.222c0.001-0.852 0.428-1.278 1.279-1.278s1.278 0.426 1.279 1.278c-0.001 1.454 0.659 2.487 1.979 3.098s2.534 0.445 3.642-0.496c0.374-0.345 0.801-0.435 1.282-0.27s0.763 0.497 0.848 0.998c0.084 0.501-0.074 0.908-0.474 1.221-1.114 0.946-2.402 1.42-3.864 1.42v0zM14.236 6.558c-0.853 0-1.279-0.426-1.279-1.279v-2.985c0-0.492 0.213-0.862 0.64-1.108s0.853-0.246 1.279 0c0.426 0.246 0.64 0.616 0.64 1.108v2.985c0 0.853-0.426 1.279-1.279 1.279v0z"></path>
</svg>
