<!-- Generated by IcoMoon.io -->
<svg version="1.1" xmlns="http://www.w3.org/2000/svg" width="34" height="34" viewBox="0 0 34 34">
<title>number</title>
<path d="M5.964 21.518v-6.993c-1.301 0.999-2.177 1.498-2.628 1.498-0.215 0-0.406-0.086-0.572-0.257s-0.25-0.37-0.25-0.596c0-0.261 0.082-0.453 0.246-0.576s0.453-0.282 0.868-0.476c0.62-0.292 1.116-0.599 1.487-0.922s0.701-0.684 0.987-1.084c0.287-0.4 0.474-0.646 0.561-0.738s0.251-0.138 0.492-0.138c0.271 0 0.489 0.105 0.653 0.315s0.246 0.499 0.246 0.868v8.799c0 1.030-0.351 1.545-1.053 1.545-0.313 0-0.563-0.105-0.753-0.315s-0.284-0.52-0.284-0.93zM15.698 20.758h4.011c0.4 0 0.704 0.082 0.914 0.246s0.315 0.387 0.315 0.669c0 0.251-0.083 0.464-0.25 0.638s-0.419 0.261-0.757 0.261h-5.656c-0.384 0-0.684-0.106-0.899-0.319s-0.323-0.462-0.323-0.749c0-0.184 0.069-0.429 0.207-0.734s0.289-0.544 0.453-0.718c0.681-0.707 1.296-1.313 1.844-1.817s0.94-0.836 1.176-0.995c0.42-0.297 0.77-0.596 1.049-0.895s0.492-0.607 0.638-0.922c0.146-0.315 0.219-0.624 0.219-0.926 0-0.328-0.078-0.621-0.234-0.88s-0.369-0.46-0.638-0.603c-0.269-0.143-0.562-0.215-0.88-0.215-0.671 0-1.199 0.295-1.583 0.884-0.051 0.077-0.137 0.287-0.257 0.63s-0.256 0.607-0.407 0.791c-0.151 0.184-0.373 0.277-0.665 0.277-0.256 0-0.469-0.085-0.638-0.254s-0.254-0.4-0.254-0.692c0-0.354 0.079-0.722 0.238-1.107s0.396-0.733 0.711-1.045c0.315-0.313 0.715-0.565 1.199-0.757s1.051-0.288 1.702-0.288c0.784 0 1.452 0.123 2.006 0.369 0.359 0.164 0.674 0.389 0.945 0.676s0.483 0.619 0.634 0.995c0.151 0.377 0.227 0.767 0.227 1.172 0 0.635-0.158 1.213-0.473 1.733s-0.637 0.927-0.964 1.222c-0.328 0.295-0.877 0.757-1.648 1.387s-1.3 1.119-1.587 1.468c-0.123 0.138-0.248 0.305-0.377 0.5zM27.16 15.77c0.471 0 0.877-0.138 1.218-0.415s0.511-0.674 0.511-1.191c0-0.394-0.136-0.734-0.407-1.018s-0.638-0.426-1.099-0.426c-0.313 0-0.57 0.044-0.772 0.131s-0.362 0.202-0.48 0.346c-0.118 0.143-0.229 0.328-0.334 0.553s-0.201 0.438-0.288 0.638c-0.051 0.108-0.143 0.192-0.277 0.254s-0.287 0.092-0.461 0.092c-0.205 0-0.393-0.083-0.565-0.25s-0.257-0.388-0.257-0.665c0-0.266 0.081-0.547 0.242-0.841s0.397-0.575 0.707-0.841c0.31-0.266 0.695-0.48 1.157-0.642s0.976-0.242 1.545-0.242c0.497 0 0.95 0.068 1.36 0.204s0.766 0.332 1.068 0.588c0.302 0.256 0.53 0.553 0.684 0.891s0.231 0.702 0.231 1.091c0 0.512-0.111 0.952-0.334 1.318s-0.542 0.724-0.957 1.072c0.4 0.215 0.736 0.461 1.010 0.738s0.48 0.583 0.619 0.918c0.138 0.336 0.207 0.698 0.207 1.087 0 0.466-0.093 0.917-0.28 1.352s-0.462 0.824-0.826 1.164c-0.364 0.341-0.795 0.607-1.295 0.799s-1.051 0.288-1.656 0.288c-0.615 0-1.165-0.11-1.652-0.33s-0.888-0.496-1.203-0.826c-0.315-0.33-0.553-0.672-0.715-1.026s-0.242-0.646-0.242-0.876c0-0.297 0.096-0.537 0.288-0.718s0.432-0.273 0.718-0.273c0.143 0 0.282 0.042 0.415 0.127s0.22 0.186 0.261 0.304c0.266 0.712 0.552 1.241 0.857 1.587s0.734 0.519 1.287 0.519c0.318 0 0.624-0.078 0.918-0.234s0.538-0.388 0.73-0.695c0.192-0.307 0.288-0.663 0.288-1.068 0-0.599-0.164-1.069-0.492-1.41s-0.784-0.511-1.368-0.511c-0.102 0-0.261 0.010-0.476 0.031s-0.354 0.031-0.415 0.031c-0.282 0-0.5-0.070-0.653-0.211s-0.231-0.337-0.231-0.588c0-0.246 0.092-0.444 0.277-0.596s0.459-0.227 0.822-0.227h0.315z"></path>
</svg>
