<!-- Generated by IcoMoon.io -->
<svg version="1.1" xmlns="http://www.w3.org/2000/svg" width="34" height="34" viewBox="0 0 34 34">
<title>painel</title>
<path d="M29.864 12.264h-8.128v-8.128h3.264c0.848 0 1.536-0.688 1.536-1.536s-0.688-1.536-1.536-1.536h-4.8c-0.848 0-1.536 0.688-1.536 1.536v11.2c0 0.848 0.688 1.536 1.536 1.536h11.2c0.848 0 1.536-0.688 1.536-1.536v-11.2c0-0.86-0.707-1.553-1.567-1.536l-1.6 0.032c-0.848 0.017-1.522 0.718-1.505 1.566s0.718 1.522 1.566 1.505l0.033 8.096zM4.136 21.736l0.033 8.096c0.848-0.017 1.549 0.657 1.566 1.505s-0.657 1.549-1.505 1.566l-1.6 0.032c-0.86 0.017-1.567-0.675-1.567-1.536v-11.2c0-0.848 0.688-1.536 1.536-1.536h11.2c0.848 0 1.536 0.688 1.536 1.536v11.2c0 0.848-0.688 1.536-1.536 1.536h-4.8c-0.848 0-1.536-0.688-1.536-1.536s0.688-1.536 1.536-1.536h3.264v-8.128h-8.128zM12.264 4.136l-8.096 0.033c0.017 0.848-0.657 1.549-1.505 1.566s-1.549-0.657-1.566-1.505l-0.032-1.6c-0.017-0.86 0.675-1.567 1.536-1.567h11.2c0.848 0 1.536 0.688 1.536 1.536v11.2c0 0.848-0.688 1.536-1.536 1.536h-11.2c-0.848 0-1.536-0.688-1.536-1.536v-4.8c0-0.848 0.688-1.536 1.536-1.536s1.536 0.688 1.536 1.536v3.264h8.128v-8.128zM29.864 21.736l-8.096 0.033c0.017 0.848-0.657 1.549-1.505 1.566s-1.549-0.657-1.566-1.505l-0.032-1.6c-0.017-0.86 0.675-1.567 1.536-1.567h11.2c0.848 0 1.536 0.688 1.536 1.536v11.2c0 0.848-0.688 1.536-1.536 1.536h-11.2c-0.848 0-1.536-0.688-1.536-1.536v-4.8c0-0.848 0.688-1.536 1.536-1.536s1.536 0.688 1.536 1.536v3.264h8.128v-8.128z"></path>
</svg>
