<!-- Generated by IcoMoon.io -->
<svg version="1.1" xmlns="http://www.w3.org/2000/svg" width="34" height="34" viewBox="0 0 34 34">
<title>print</title>
<path d="M6.818 19.182h20.364v10.186c0 0.801-0.654 1.45-1.464 1.45h-17.435c-0.809 0-1.464-0.659-1.464-1.45v-10.186zM27.173 23.662h2.931c0.053 0 0.103-0.051 0.103-0.129v-11.612c0-0.075-0.054-0.129-0.103-0.129h-26.311v11.74c0 0.075 0.054 0.129 0.103 0.129h2.901v2.791l-2.901 0.001c-1.6 0-2.896-1.312-2.896-2.922v-11.612c0-1.614 1.294-2.922 2.896-2.922h26.208c1.6 0 2.896 1.312 2.896 2.922v11.612c0 1.614-1.294 2.922-2.896 2.922h-2.984l0.054-2.793zM9.611 28.025h14.778v-6.051h-14.778v6.051zM9.611 9h14.778v-3.025h-14.778v3.025zM6.818 4.632c0-0.801 0.654-1.45 1.464-1.45h17.435c0.809 0 1.464 0.659 1.464 1.45v5.859h-20.364v-5.859zM24.273 14.76c0-0.771 0.625-1.396 1.405-1.396h1.554c0.776 0 1.405 0.62 1.405 1.396 0 0.771-0.625 1.396-1.405 1.396h-1.554c-0.776 0-1.405-0.62-1.405-1.396zM18.455 14.76c0-0.771 0.625-1.396 1.405-1.396h1.554c0.776 0 1.405 0.62 1.405 1.396 0 0.771-0.625 1.396-1.405 1.396h-1.554c-0.776 0-1.405-0.62-1.405-1.396z"></path>
</svg>
