<!-- Generated by IcoMoon.io -->
<svg version="1.1" xmlns="http://www.w3.org/2000/svg" width="34" height="34" viewBox="0 0 34 34">
<title>search</title>
<path d="M19.336 26.472c-7.034 0-12.736-5.702-12.736-12.736s5.702-12.736 12.736-12.736c7.034 0 12.736 5.702 12.736 12.736s-5.702 12.736-12.736 12.736zM19.336 23.4c5.337 0 9.664-4.327 9.664-9.664s-4.327-9.664-9.664-9.664c-5.337 0-9.664 4.327-9.664 9.664s4.327 9.664 9.664 9.664zM4.422 32.422l4.8-4.8c0.6-0.6 0.6-1.572 0-2.172s-1.572-0.6-2.172 0l-4.8 4.8c-0.6 0.6-0.6 1.572 0 2.172s1.572 0.6 2.172 0z"></path>
</svg>
