<!-- Generated by IcoMoon.io -->
<svg version="1.1" xmlns="http://www.w3.org/2000/svg" width="28" height="34" viewBox="0 0 28 34">
<title>share</title>
<path d="M22.091 11.145c-2.792 0-5.055-2.263-5.055-5.055s2.263-5.055 5.055-5.055c2.792 0 5.055 2.263 5.055 5.055s-2.263 5.055-5.055 5.055zM22.091 8.309c1.225 0 2.218-0.993 2.218-2.218s-0.993-2.218-2.218-2.218c-1.225 0-2.218 0.993-2.218 2.218s0.993 2.218 2.218 2.218zM22.091 30.091c1.205 0 2.182-0.977 2.182-2.182s-0.977-2.182-2.182-2.182c-1.205 0-2.182 0.977-2.182 2.182s0.977 2.182 2.182 2.182zM12.187 14.849c0.267 0.665 0.413 1.391 0.413 2.151 0 0.743-0.14 1.453-0.395 2.105l6.793 4.852c0.852-0.668 1.926-1.066 3.093-1.066 2.771 0 5.018 2.247 5.018 5.018s-2.247 5.018-5.018 5.018c-2.771 0-5.018-2.247-5.018-5.018 0-0.576 0.097-1.129 0.276-1.645-2.264-1.617-4.529-3.235-6.793-4.852-1.008 0.854-2.312 1.37-3.737 1.37-0.783 0-1.418-0.635-1.418-1.418s0.635-1.418 1.418-1.418c1.627 0 2.945-1.319 2.945-2.945s-1.319-2.945-2.945-2.945c-1.627 0-2.945 1.319-2.945 2.945 0 0.783-0.635 1.418-1.418 1.418s-1.418-0.635-1.418-1.418c0-3.193 2.589-5.782 5.782-5.782 1.407 0 2.697 0.503 3.699 1.338 2.647-1.925 6.793-4.94 6.793-4.94l1.634 2.283-0.107 0.114c0 0-4.283 3.115-6.65 4.837z"></path>
</svg>
