<!-- Generated by IcoMoon.io -->
<svg version="1.1" xmlns="http://www.w3.org/2000/svg" width="34" height="34" viewBox="0 0 34 34">
<title>string</title>
<path d="M7.634 20.754l-0.513-1.348h-4.366l-0.513 1.377c-0.2 0.537-0.371 0.9-0.513 1.088s-0.374 0.282-0.696 0.282c-0.273 0-0.515-0.1-0.725-0.3s-0.315-0.427-0.315-0.681c0-0.147 0.024-0.298 0.073-0.454s0.129-0.374 0.242-0.652l2.747-6.974c0.078-0.2 0.172-0.441 0.282-0.722s0.227-0.514 0.352-0.7c0.125-0.186 0.288-0.336 0.491-0.45s0.453-0.172 0.751-0.172c0.303 0 0.555 0.057 0.758 0.172s0.366 0.263 0.491 0.443c0.125 0.181 0.23 0.375 0.315 0.582s0.194 0.485 0.326 0.831l2.806 6.93c0.22 0.527 0.33 0.911 0.33 1.15 0 0.249-0.104 0.477-0.311 0.685s-0.458 0.311-0.751 0.311c-0.171 0-0.317-0.031-0.44-0.092s-0.225-0.144-0.308-0.249c-0.083-0.105-0.172-0.266-0.267-0.484s-0.177-0.409-0.245-0.575zM3.326 17.772h3.209l-1.619-4.432-1.59 4.432zM17.389 21.97h-3.282c-0.474 0-0.812-0.106-1.015-0.319s-0.304-0.551-0.304-1.015v-8.073c0-0.474 0.104-0.814 0.311-1.022s0.543-0.311 1.007-0.311h3.48c0.513 0 0.957 0.032 1.333 0.095s0.713 0.186 1.011 0.366c0.254 0.151 0.479 0.343 0.674 0.575s0.344 0.488 0.447 0.769c0.103 0.281 0.154 0.578 0.154 0.89 0 1.074-0.537 1.861-1.612 2.359 1.411 0.449 2.117 1.323 2.117 2.623 0 0.601-0.154 1.142-0.462 1.623s-0.723 0.836-1.245 1.066c-0.327 0.137-0.703 0.233-1.128 0.289s-0.921 0.084-1.487 0.084zM17.228 17.201h-2.264v3.135h2.337c1.47 0 2.205-0.53 2.205-1.59 0-0.542-0.19-0.935-0.571-1.179s-0.95-0.366-1.707-0.366zM14.964 12.864v2.776h1.992c0.542 0 0.961-0.051 1.256-0.154s0.521-0.298 0.678-0.586c0.122-0.205 0.183-0.435 0.183-0.689 0-0.542-0.193-0.902-0.579-1.080s-0.974-0.267-1.765-0.267h-1.765zM33.993 18.578c0 0.342-0.084 0.712-0.253 1.11s-0.433 0.789-0.795 1.172c-0.361 0.383-0.823 0.695-1.385 0.934s-1.216 0.359-1.963 0.359c-0.567 0-1.082-0.054-1.546-0.161s-0.885-0.275-1.264-0.502c-0.378-0.227-0.726-0.526-1.044-0.897-0.283-0.337-0.525-0.714-0.725-1.132s-0.35-0.863-0.451-1.337c-0.1-0.474-0.15-0.977-0.15-1.509 0-0.864 0.126-1.638 0.377-2.322s0.612-1.269 1.080-1.754c0.469-0.486 1.018-0.856 1.648-1.11s1.301-0.381 2.015-0.381c0.869 0 1.643 0.173 2.322 0.52s1.199 0.775 1.56 1.286c0.361 0.51 0.542 0.993 0.542 1.447 0 0.249-0.088 0.469-0.264 0.659s-0.388 0.286-0.637 0.286c-0.278 0-0.487-0.066-0.626-0.198s-0.294-0.359-0.465-0.681c-0.283-0.532-0.617-0.93-1-1.194s-0.856-0.396-1.417-0.396c-0.894 0-1.606 0.339-2.135 1.018s-0.795 1.643-0.795 2.894c0 0.835 0.117 1.53 0.352 2.084s0.567 0.968 0.996 1.242c0.43 0.273 0.933 0.41 1.509 0.41 0.625 0 1.154-0.155 1.586-0.465s0.758-0.765 0.978-1.366c0.093-0.283 0.208-0.514 0.344-0.692s0.357-0.267 0.659-0.267c0.259 0 0.481 0.090 0.667 0.271s0.278 0.405 0.278 0.674z"></path>
</svg>
