<!-- Generated by IcoMoon.io -->
<svg version="1.1" xmlns="http://www.w3.org/2000/svg" width="34" height="34" viewBox="0 0 34 34">
<title>time</title>
<path d="M17 33.32c-9.013 0-16.32-7.307-16.32-16.32s7.307-16.32 16.32-16.32c9.013 0 16.32 7.307 16.32 16.32s-7.307 16.32-16.32 16.32zM17 31.28c7.887 0 14.28-6.393 14.28-14.28s-6.393-14.28-14.28-14.28c-7.887 0-14.28 6.393-14.28 14.28s6.393 14.28 14.28 14.28zM23.8 17.68c0.563 0 1.020 0.457 1.020 1.020s-0.457 1.020-1.020 1.020h-6.8c-0.563 0-1.020-0.457-1.020-1.020v-10.2c0-0.563 0.457-1.020 1.020-1.020s1.020 0.457 1.020 1.020v9.18h5.78z"></path>
</svg>
