<?xml version="1.0" encoding="UTF-8"?>
<svg width="42px" height="16px" viewBox="0 0 42 16" version="1.1" xmlns="http://www.w3.org/2000/svg" xmlns:xlink="http://www.w3.org/1999/xlink">
    <!-- Generator: Sketch 43.2 (39069) - http://www.bohemiancoding.com/sketch -->
    <title>BPbi</title>
    <desc>Created with Sketch.</desc>
    <defs></defs>
    <g id="Layouts" stroke="none" stroke-width="1" fill="none" fill-rule="evenodd">
        <g id="home-1366x768--NOVO" transform="translate(-16.000000, -16.000000)" fill="#FFFFFF">
            <g id="sidebar">
                <g id="sidebar--header">
                    <path d="M16,31.8493611 L16,16.0968393 L22.6496301,16.0968393 C25.9529254,16.0968393 27.2225958,17.9045057 27.2225958,20.3470074 C27.2225958,21.7457969 26.5447209,23.4566241 25.0006725,23.6718225 C26.4478816,23.9193006 27.5346335,25.2965703 27.5346335,27.1365165 C27.5346335,30.3322125 26.0443847,31.8493611 22.7303295,31.8493611 L16,31.8493611 Z M19.5346335,28.804304 L22.5689307,28.804304 C23.4404842,28.804304 24.00538,28.3147276 24.00538,26.9643578 C24.00538,25.9690652 23.6503026,25.0490921 22.5689307,25.0490921 L19.5346335,25.0490921 L19.5346335,28.804304 Z M19.5346335,22.1654338 L22.4075319,22.1654338 C23.2952253,22.1654338 23.7579018,21.5790182 23.7579018,20.6859449 C23.7579018,19.4539341 23.0423672,19.1418964 22.4075319,19.1418964 L19.5346335,19.1418964 L19.5346335,22.1654338 Z M28.938803,31.8493611 L28.938803,16.0968393 L35.8197714,16.0968393 C37.8910558,16.0968393 40.4088769,16.6778749 40.4088769,21.062542 C40.4088769,25.9798252 37.7027572,26.3564223 35.8197714,26.2434432 C34.9589778,26.1950235 32.5756557,25.8776059 32.4680565,25.8130464 L32.4680565,31.8493611 L28.938803,31.8493611 Z M32.4680565,23.198386 L35.4969738,23.198386 C36.3900471,23.198386 36.8581036,22.6496301 36.8581036,21.1109617 C36.8473436,19.599193 36.2501681,19.1634163 35.4969738,19.1634163 L32.4680565,19.1634163 L32.4680565,23.198386 Z M42.66846,31.8493611 L42.66846,16 L44.5944855,16 L44.5944855,22.5205111 C45.0464044,21.9968591 45.5646687,21.5754331 46.1492939,21.2562206 C46.7339191,20.937008 47.4028207,20.7774042 48.1560188,20.7774042 C48.7872706,20.7774042 49.3575406,20.8957621 49.866846,21.1324815 C50.3761514,21.3692009 50.8101305,21.7224814 51.1687962,22.1923336 C51.527462,22.6621857 51.8036305,23.2432155 51.99731,23.9354405 C52.1909895,24.6276654 52.2878278,25.4256848 52.2878278,26.3295225 C52.2878278,27.1329339 52.1802297,27.8807408 51.9650303,28.5729657 C51.7498308,29.2651906 51.4395896,29.8641535 51.0342972,30.3698722 C50.6290049,30.875591 50.1340536,31.273704 49.5494284,31.5642233 C48.9648032,31.8547425 48.3066614,32 47.5749832,32 C46.8719983,32 46.2748287,31.8637091 45.7834566,31.5911231 C45.2920845,31.3185371 44.8634854,30.9383571 44.4976463,30.4505716 L44.400807,31.4404842 C44.3434205,31.7130702 44.1784367,31.8493611 43.9058507,31.8493611 L42.66846,31.8493611 Z M47.5319435,22.3053127 C46.9078651,22.3053127 46.360908,22.4487769 45.8910558,22.7357095 C45.4212037,23.0226421 44.9890179,23.4279283 44.5944855,23.9515804 L44.5944855,29.2239408 C44.9388047,29.6973796 45.320778,30.0309338 45.7404169,30.2246133 C46.1600559,30.4182928 46.6281077,30.5151311 47.1445864,30.5151311 C48.1631972,30.5151311 48.9450769,30.1528841 49.4902488,29.4283793 C50.0354208,28.7038744 50.3080027,27.6709325 50.3080027,26.3295225 C50.3080027,25.6193643 50.2452371,25.0096416 50.1197041,24.5003362 C49.9941711,23.9910309 49.8130476,23.5731915 49.5763282,23.2468056 C49.3396088,22.9204198 49.0490939,22.6819106 48.7047747,22.531271 C48.3604556,22.3806314 47.9695157,22.3053127 47.5319435,22.3053127 Z M56.7639543,20.9495629 L56.7639543,31.8493611 L54.8486886,31.8493611 L54.8486886,20.9495629 L56.7639543,20.9495629 Z M57.194351,17.5279085 C57.194351,17.7144147 57.1566917,17.888365 57.0813719,18.0497646 C57.0060521,18.2111642 56.9056272,18.3546284 56.7800941,18.4801614 C56.6545611,18.6056944 56.5093037,18.704326 56.3443174,18.7760592 C56.1793312,18.8477923 56.0035876,18.8836584 55.8170814,18.8836584 C55.6305752,18.8836584 55.4566249,18.8477923 55.2952253,18.7760592 C55.1338257,18.704326 54.9903615,18.6056944 54.8648285,18.4801614 C54.7392955,18.3546284 54.6406639,18.2111642 54.5689307,18.0497646 C54.4971976,17.888365 54.4613315,17.7144147 54.4613315,17.5279085 C54.4613315,17.3414023 54.4971976,17.1638654 54.5689307,16.9952925 C54.6406639,16.8267196 54.7392955,16.6796689 54.8648285,16.5541358 C54.9903615,16.4286028 55.1338257,16.3299712 55.2952253,16.2582381 C55.4566249,16.1865049 55.6305752,16.1506389 55.8170814,16.1506389 C56.0035876,16.1506389 56.1793312,16.1865049 56.3443174,16.2582381 C56.5093037,16.3299712 56.6545611,16.4286028 56.7800941,16.5541358 C56.9056272,16.6796689 57.0060521,16.8267196 57.0813719,16.9952925 C57.1566917,17.1638654 57.194351,17.3414023 57.194351,17.5279085 Z" id="BPbi"></path>
                </g>
            </g>
        </g>
    </g>
</svg>