<?xml version="1.0" encoding="UTF-8"?>
<svg width="143px" height="88px" viewBox="0 0 143 88" version="1.1" xmlns="http://www.w3.org/2000/svg" xmlns:xlink="http://www.w3.org/1999/xlink">
    <!-- Generator: Sketch 43.2 (39069) - http://www.bohemiancoding.com/sketch -->
    <title>bp1-logo-color</title>
    <desc>Created with Sketch.</desc>
    <defs></defs>
    <g id="Components" stroke="none" stroke-width="1" fill="none" fill-rule="evenodd">
        <g id="bp1-logo-color" fill="#296D75">
            <g id="gestão-por-processos" transform="translate(44.942857, 81.714286)">
                <path d="M0,3.58901207 L0,3.57551139 C0,2.19230556 1.16978871,1.02142857 2.81481821,1.02142857 C3.76575198,1.02142857 4.35109851,1.261577 4.91202735,1.6921668 L4.30384574,2.34715424 C3.8828665,2.02293341 3.46957432,1.81858224 2.77593076,1.81858224 C1.76983108,1.81858224 1.00609968,2.6153268 1.00609968,3.56098793 L1.00609968,3.57551139 C1.00609968,4.59051691 1.74699601,5.33857721 2.86139271,5.33857721 C3.37597313,5.33857721 3.84397905,5.19068342 4.17927025,4.96505845 L4.17927025,4.04087567 L2.78339173,4.04087567 L2.78339173,3.28606503 L5.10714286,3.28606503 L5.10714286,5.36005556 C4.56927518,5.77612191 3.79740455,6.12857143 2.83041841,6.12857143 C1.12276203,6.12857143 0,5.02806161 0,3.58901207" id="Fill-1"></path>
                <polyline id="Fill-2" points="5.51571429 1.02142857 9.56231676 1.02142857 9.56231676 1.82310909 6.47497091 1.82310909 6.47497091 3.15141478 9.2114409 3.15141478 9.2114409 3.95457636 6.47497091 3.95457636 6.47497091 5.32604459 9.60142857 5.32604459 9.60142857 6.12857143 5.51571429 6.12857143 5.51571429 1.02142857"></polyline>
                <path d="M10.01,5.33336364 L10.5678782,4.70970351 C11.0726355,5.12129451 11.57783,5.35475567 12.2336429,5.35475567 C12.8066048,5.35475567 13.1683949,5.10669033 13.1683949,4.73109555 L13.1683949,4.71669707 C13.1683949,4.36208293 12.9574417,4.17058307 11.9776573,3.95727979 C10.8542498,3.70222091 10.2209531,3.39018515 10.2209531,2.47505854 L10.2209531,2.46066006 C10.2209531,1.60991525 10.9749194,1.02142857 12.0226898,1.02142857 C12.7915211,1.02142857 13.4023015,1.24110832 13.9374448,1.64508869 L13.4399014,2.30474503 C12.9646557,1.97111155 12.4898471,1.79401017 12.0073874,1.79401017 C11.464593,1.79401017 11.148054,2.05667969 11.148054,2.38270254 L11.148054,2.39751241 C11.148054,2.77989505 11.3896117,2.95000288 12.399345,3.17791034 C13.5155385,3.43296922 14.0957143,3.80835831 14.0957143,4.63195169 L14.0957143,4.64532171 C14.0957143,5.57484681 13.3194504,6.12857143 12.2111267,6.12857143 C11.4046954,6.12857143 10.6428594,5.86590191 10.01,5.33336364" id="Fill-3"></path>
                <polyline id="Fill-4" points="16.1010664 1.85251885 14.5042857 1.85251885 14.5042857 1.02142857 18.59 1.02142857 18.59 1.85251885 16.9932193 1.85251885 16.9932193 6.12857143 16.1010664 6.12857143 16.1010664 1.85251885"></polyline>
                <path d="M22.3848049,4.25868898 L21.5382466,2.37495555 L20.6987885,4.25868898 L22.3848049,4.25868898 Z M20.2439637,0.888023465 C20.3908384,0.363051772 20.6010072,0.0600859462 21.0276337,0.0600859462 C21.4124699,0.0600859462 21.8113037,0.322279166 22.0561626,0.322279166 C22.2590282,0.322279166 22.3430146,0.215177918 22.4409987,0 L22.9165158,0.133827789 C22.7625408,0.658994566 22.5527777,0.961765308 22.1328458,0.961765308 C21.7484154,0.961765308 21.3495815,0.699572088 21.1043169,0.699572088 C20.901857,0.699572088 20.8178706,0.806673336 20.7127862,1.02926446 L20.2439637,0.888023465 Z M21.1534104,1.38548828 L21.9508753,1.38548828 L24.1057143,6.12857143 L23.1962676,6.12857143 L22.6996524,4.99142539 L20.3841439,4.99142539 L19.8802256,6.12857143 L18.9985714,6.12857143 L21.1534104,1.38548828 L21.1534104,1.38548828 Z" id="Fill-5"></path>
                <path d="M28.7217152,3.58901207 L28.7217152,3.57551139 C28.7217152,2.6153268 28.0305929,1.81858224 27.0610795,1.81858224 C26.0913637,1.81858224 25.414606,2.60162157 25.414606,3.56098793 L25.414606,3.57551139 C25.414606,4.53446864 26.1051214,5.33182687 27.0748372,5.33182687 C28.0449576,5.33182687 28.7217152,4.5489921 28.7217152,3.58901207 Z M24.5142857,3.58901207 L24.5142857,3.57551139 C24.5142857,2.18575977 25.5750451,1.02142857 27.0748372,1.02142857 C28.5752361,1.02142857 29.6214286,2.17123632 29.6214286,3.56098793 L29.6214286,3.57551139 C29.6214286,4.96505845 28.5608715,6.12857143 27.0610795,6.12857143 C25.5610851,6.12857143 24.5142857,4.97855913 24.5142857,3.58901207 L24.5142857,3.58901207 Z" id="Fill-6"></path>
                <path d="M35.7126187,3.67719364 C36.4136826,3.67719364 36.850454,3.29782885 36.850454,2.76527941 L36.850454,2.75025715 C36.850454,2.15169442 36.4060315,1.83813134 35.7126187,1.83813134 L34.6342437,1.83813134 L34.6342437,3.67719364 L35.7126187,3.67719364 Z M33.7071429,1.02142857 L35.7878185,1.02142857 C37.0165933,1.02142857 37.7928571,1.6991226 37.7928571,2.72804114 L37.7928571,2.7430634 C37.7928571,3.88856308 36.8436773,4.48712581 35.6820141,4.48712581 L34.6342437,4.48712581 L34.6342437,6.12857143 L33.7071429,6.12857143 L33.7071429,1.02142857 L33.7071429,1.02142857 Z" id="Fill-7"></path>
                <path d="M42.5110366,3.58901207 L42.5110366,3.57551139 C42.5110366,2.6153268 41.8199417,1.81858224 40.8502643,1.81858224 C39.8805869,1.81858224 39.2036538,2.60162157 39.2036538,3.56098793 L39.2036538,3.57551139 C39.2036538,4.53446864 39.8943441,5.33182687 40.8640214,5.33182687 C41.8341034,5.33182687 42.5110366,4.5489921 42.5110366,3.58901207 Z M38.3035714,3.58901207 L38.3035714,3.57551139 C38.3035714,2.18575977 39.3640865,1.02142857 40.8640214,1.02142857 C42.364361,1.02142857 43.4107143,2.17123632 43.4107143,3.56098793 L43.4107143,3.57551139 C43.4107143,4.96505845 42.3501992,6.12857143 40.8502643,6.12857143 C39.3503294,6.12857143 38.3035714,4.97855913 38.3035714,3.58901207 L38.3035714,3.58901207 Z" id="Fill-8"></path>
                <path d="M46.0055737,3.55299557 C46.6109312,3.55299557 46.9962856,3.21763964 46.9962856,2.69905454 L46.9962856,2.68403229 C46.9962856,2.13773008 46.6246938,1.83813134 45.9989915,1.83813134 L44.7675328,1.83813134 L44.7675328,3.55299557 L46.0055737,3.55299557 Z M43.9214286,1.02142857 L46.0676054,1.02142857 C46.672564,1.02142857 47.1474754,1.21058201 47.4570355,1.53197359 C47.7119438,1.80914474 47.8559531,2.18850952 47.8559531,2.63304126 L47.8559531,2.64806352 C47.8559531,3.48698229 47.3814406,3.99033356 46.7072698,4.19493241 L48.0071429,6.12857143 L47.0102477,6.12857143 L45.8268586,4.3479055 L44.7675328,4.3479055 L44.7675328,6.12857143 L43.9214286,6.12857143 L43.9214286,1.02142857 L43.9214286,1.02142857 Z" id="Fill-9"></path>
                <path d="M54.098003,3.67719364 C54.7995417,3.67719364 55.2363365,3.29782885 55.2363365,2.76527941 L55.2363365,2.75025715 C55.2363365,2.15169442 54.7918902,1.83813134 54.098003,1.83813134 L53.019789,1.83813134 L53.019789,3.67719364 L54.098003,3.67719364 Z M52.0928571,1.02142857 L54.1734255,1.02142857 C55.4024847,1.02142857 56.1785714,1.6991226 56.1785714,2.72804114 L56.1785714,2.7430634 C56.1785714,3.88856308 55.2291222,4.48712581 54.0676154,4.48712581 L53.019789,4.48712581 L53.019789,6.12857143 L52.0928571,6.12857143 L52.0928571,1.02142857 L52.0928571,1.02142857 Z" id="Fill-10"></path>
                <path d="M59.1562711,3.55299557 C59.7616877,3.55299557 60.1470798,3.21763964 60.1470798,2.69905454 L60.1470798,2.68403229 C60.1470798,2.13773008 59.7754517,1.83813134 59.1496883,1.83813134 L57.9181094,1.83813134 L57.9181094,3.55299557 L59.1562711,3.55299557 Z M57.0723214,1.02142857 L59.2183088,1.02142857 C59.8237254,1.02142857 60.2986833,1.21058201 60.6078746,1.53197359 C60.8628078,1.80914474 61.0072301,2.18850952 61.0072301,2.63304126 L61.0072301,2.64806352 C61.0072301,3.48698229 60.5324718,3.99033356 59.8580357,4.19493241 L61.1580357,6.12857143 L60.1610432,6.12857143 L58.9775386,4.3479055 L57.9181094,4.3479055 L57.9181094,6.12857143 L57.0723214,6.12857143 L57.0723214,1.02142857 L57.0723214,1.02142857 Z" id="Fill-11"></path>
                <path d="M66.2591796,3.58901207 L66.2591796,3.57551139 C66.2591796,2.6153268 65.5680299,1.81858224 64.5982757,1.81858224 C63.6285215,1.81858224 62.9519394,2.60162157 62.9519394,3.56098793 L62.9519394,3.57551139 C62.9519394,4.53446864 63.6422797,5.33182687 64.6120339,5.33182687 C65.5821928,5.33182687 66.2591796,4.5489921 66.2591796,3.58901207 Z M62.0517857,3.58901207 L62.0517857,3.57551139 C62.0517857,2.18575977 63.1119802,1.02142857 64.6120339,1.02142857 C66.1124924,1.02142857 67.1589286,2.17123632 67.1589286,3.56098793 L67.1589286,3.57551139 C67.1589286,4.96505845 66.0983295,6.12857143 64.5982757,6.12857143 C63.0982219,6.12857143 62.0517857,4.97855913 62.0517857,3.58901207 L62.0517857,3.58901207 Z" id="Fill-12"></path>
                <path d="M68.0526786,3.58901207 L68.0526786,3.57551139 C68.0526786,2.17123632 69.0039941,1.02142857 70.3573835,1.02142857 C71.1805982,1.02142857 71.6787477,1.33889906 72.1065528,1.79076266 L71.6021093,2.43224943 C71.2446486,2.06548101 70.8612716,1.81858224 70.3507193,1.81858224 C69.4952943,1.81858224 68.8764486,2.59507579 68.8764486,3.56098793 L68.8764486,3.57551139 C68.8764486,4.54142354 69.4952943,5.33182687 70.3507193,5.33182687 C70.899961,5.33182687 71.2511277,5.08513266 71.6339494,4.68931733 L72.1383929,5.2545048 C71.6722686,5.78962259 71.1617163,6.12857143 70.3255434,6.12857143 C69.0228761,6.12857143 68.0526786,5.00658326 68.0526786,3.58901207" id="Fill-13"></path>
                <polyline id="Fill-14" points="73.0321429 1.02142857 77.0789671 1.02142857 77.0789671 1.82310909 73.9908273 1.82310909 73.9908273 3.15141478 76.7278263 3.15141478 76.7278263 3.95457636 73.9908273 3.95457636 73.9908273 5.32604459 77.1178571 5.32604459 77.1178571 6.12857143 73.0321429 6.12857143 73.0321429 1.02142857"></polyline>
                <path d="M78.0116071,5.33336364 L78.5692965,4.70970351 C79.0742995,5.12129451 79.579521,5.35475567 80.235369,5.35475567 C80.8083615,5.35475567 81.1699524,5.10669033 81.1699524,4.73109555 L81.1699524,4.71669707 C81.1699524,4.36208293 80.958988,4.17058307 79.9791511,3.95727979 C78.8556835,3.70222091 78.2225716,3.39018515 78.2225716,2.47505854 L78.2225716,2.46066006 C78.2225716,1.60991525 78.9765781,1.02142857 80.0244046,1.02142857 C80.7930584,1.02142857 81.4040901,1.24110832 81.9390434,1.64508869 L81.4414735,2.30474503 C80.9664209,1.97111155 80.491587,1.79401017 80.0091015,1.79401017 C79.466278,1.79401017 79.1495034,2.05667969 79.1495034,2.38270254 L79.1495034,2.39751241 C79.1495034,2.77989505 79.3910741,2.95000288 80.4010799,3.17791034 C81.5171146,3.43296922 82.0973214,3.80835831 82.0973214,4.63195169 L82.0973214,4.64532171 C82.0973214,5.57484681 81.3212347,6.12857143 80.212633,6.12857143 C79.4061586,6.12857143 78.6442818,5.86590191 78.0116071,5.33336364" id="Fill-15"></path>
                <path d="M82.9910714,5.33336364 L83.5491085,4.70970351 C84.0538118,5.12129451 84.5591708,5.35475567 85.2149136,5.35475567 C85.7878141,5.35475567 86.1495655,5.10669033 86.1495655,4.73109555 L86.1495655,4.71669707 C86.1495655,4.36208293 85.9386349,4.17058307 84.9587367,3.95727979 C83.835668,3.70222091 83.2024392,3.39018515 83.2024392,2.47505854 L83.2024392,2.46066006 C83.2024392,1.60991525 83.9563247,1.02142857 85.0035458,1.02142857 C85.7725135,1.02142857 86.3834471,1.24110832 86.9187517,1.64508869 L86.421043,2.30474503 C85.9458481,1.97111155 85.4710904,1.79401017 84.9886823,1.79401017 C84.4461645,1.79401017 84.1292222,2.05667969 84.1292222,2.38270254 L84.1292222,2.39751241 C84.1292222,2.77989505 84.3709727,2.95000288 85.3805979,3.17791034 C86.496672,3.43296922 87.0767857,3.80835831 87.0767857,4.63195169 L87.0767857,4.64532171 C87.0767857,5.57484681 86.3006049,6.12857143 85.1923997,6.12857143 C84.3858362,6.12857143 83.6243003,5.86590191 82.9910714,5.33336364" id="Fill-16"></path>
                <path d="M92.1779296,3.58901207 L92.1779296,3.57551139 C92.1779296,2.6153268 91.4867799,1.81858224 90.5170257,1.81858224 C89.5472715,1.81858224 88.8708917,2.60162157 88.8708917,3.56098793 L88.8708917,3.57551139 C88.8708917,4.53446864 89.5612321,5.33182687 90.5309863,5.33182687 C91.5011451,5.33182687 92.1779296,4.5489921 92.1779296,3.58901207 Z M87.9705357,3.58901207 L87.9705357,3.57551139 C87.9705357,2.18575977 89.0309325,1.02142857 90.5309863,1.02142857 C92.0314447,1.02142857 93.0776786,2.17123632 93.0776786,3.56098793 L93.0776786,3.57551139 C93.0776786,4.96505845 92.0170795,6.12857143 90.5170257,6.12857143 C89.0169719,6.12857143 87.9705357,4.97855913 87.9705357,3.58901207 L87.9705357,3.58901207 Z" id="Fill-17"></path>
                <path d="M93.9714286,5.33336364 L94.5294955,4.70970351 C95.0340072,5.12129451 95.5396119,5.35475567 96.1949525,5.35475567 C96.7678837,5.35475567 97.129873,5.10669033 97.129873,4.73109555 L97.129873,4.71669707 C97.129873,4.36208293 96.9189312,4.17058307 95.9391992,3.95727979 C94.816289,3.70222091 94.1823704,3.39018515 94.1823704,2.47505854 L94.1823704,2.46066006 C94.1823704,1.60991525 94.9362963,1.02142857 95.9840106,1.02142857 C96.7530194,1.02142857 97.3639857,1.24110832 97.8988818,1.64508869 L97.4013651,2.30474503 C96.9263633,1.97111155 96.4515802,1.79401017 95.9691463,1.79401017 C95.4259437,1.79401017 95.1100774,2.05667969 95.1100774,2.38270254 L95.1100774,2.39751241 C95.1100774,2.77989505 95.3514037,2.95000288 96.3610829,3.17791034 C97.4769981,3.43296922 98.0571429,3.80835831 98.0571429,4.63195169 L98.0571429,4.64532171 C98.0571429,5.57484681 97.2811391,6.12857143 96.1726561,6.12857143 C95.366268,6.12857143 94.6044727,5.86590191 93.9714286,5.33336364" id="Fill-18"></path>
            </g>
            <path d="M129.813006,45.1038768 L123.333546,46.5167073 L120.946365,36.7391207 L132.825411,33.517476 L142.88607,33.517476 L142.88607,73.363251 L129.813006,73.363251 L129.813006,45.1038768 M101.686123,53.2263925 C105.101416,53.2263925 107.378634,51.689747 107.378634,48.8445987 L107.378634,48.7307414 C107.378634,45.8282365 105.272469,44.3489477 101.742641,44.3489477 L98.0993481,44.3489477 L98.0993481,53.2263925 L101.686123,53.2263925 Z M84.7785714,33.7071429 L102.710518,33.7071429 C113.298932,33.7071429 120.528571,38.4300804 120.528571,47.8772397 L120.528571,47.990883 C120.528571,57.6084002 113.185253,62.7296243 102.425785,62.7296243 L98.0993481,62.7296243 L98.0993481,73.5428571 L84.7785714,73.5428571 L84.7785714,33.7071429 L84.7785714,33.7071429 Z M64.2517405,63.4699108 C67.106282,63.4699108 68.5617572,62.2750512 68.5617572,60.5669778 L68.5617572,60.4537625 C68.5617572,58.7463311 67.1624804,57.5514716 64.3081494,57.5514716 L57.7038912,57.5514716 L57.7038912,63.4699108 L64.2517405,63.4699108 Z M63.4123428,49.3565285 C66.2111069,49.3565285 67.5539749,48.3889555 67.5539749,46.6252375 L67.5539749,46.5111662 C67.5539749,44.7468062 66.1549085,43.7798752 63.3565654,43.7798752 L57.7038912,43.7798752 L57.7038912,49.3565285 L63.4123428,49.3565285 Z M44.9428571,33.7071429 L66.8827514,33.7071429 C72.3114739,33.7071429 75.7256841,34.9589311 78.020136,37.2919355 C79.4189919,38.7145097 80.4269847,40.763513 80.4269847,43.495446 L80.4269847,43.6086612 C80.4269847,48.3322409 77.6288521,51.2347459 73.4310216,52.7142486 C78.4682498,54.1941795 81.7142857,56.9248284 81.7142857,62.3886945 L81.7142857,62.5021238 C81.7142857,68.8759921 76.5652922,73.5428571 66.6587997,73.5428571 L44.9428571,73.5428571 L44.9428571,33.7071429 L44.9428571,33.7071429 Z" id="Fill-21"></path>
            <path d="M39.8357143,20.4754282 L32.1753184,20.4754282 L32.1753184,59.2428571 L24.5142857,59.2428571 L24.5142857,5.10714286 L39.8357143,20.4754282 Z M20.9045052,66.497834 L18.6964484,66.497834 L18.6964484,5.3324948 L3.10624215,20.7516263 L0,20.7516263 L20.9045052,0.0314576383 L20.9045052,66.497834 Z" id="Fill-25"></path>
        </g>
    </g>
</svg>