<svg xmlns="http://www.w3.org/2000/svg" width="48" height="48" viewBox="0 0 48 48">
  <g fill="none" fill-rule="evenodd">
    <polyline stroke="#000" stroke-linecap="round" stroke-linejoin="round" stroke-width="1.95" points="8 8 8 40.016 40 40.016"/>
    <path fill="#000" fill-rule="nonzero" d="M23.9856409,19.9284202 L23.9856409,19.9284202 C23.3546742,20.5741604 22.4741477,20.975 21.5,20.975 C20.9653003,20.975 20.4588068,20.8542351 20.006307,20.6384927 L16.8912571,25.9785783 C17.5587457,26.6118175 17.975,27.507298 17.975,28.5 C17.975,30.4191895 16.4191895,31.975 14.5,31.975 C12.5808105,31.975 11.025,30.4191895 11.025,28.5 C11.025,26.5808105 12.5808105,25.025 14.5,25.025 C14.7236047,25.025 14.9422767,25.0461195 15.15413,25.0864725 L18.5282754,19.3022232 C18.2089131,18.7767465 18.025,18.1598509 18.025,17.5 C18.025,15.5808105 19.5808105,14.025 21.5,14.025 C23.4191895,14.025 24.975,15.5808105 24.975,17.5 C24.975,17.741558 24.950353,17.9773593 24.9034367,18.2050264 L28.6790048,20.4703673 C29.3099806,19.594912 30.3384353,19.025 31.5,19.025 C31.5780769,19.025 31.6555524,19.0275749 31.7323461,19.0326445 L34.0404426,13.9548324 C33.4129791,13.3261688 33.025,12.4583931 33.025,11.5 C33.025,9.58081049 34.5808105,8.025 36.5,8.025 C38.4191895,8.025 39.975,9.58081049 39.975,11.5 C39.975,13.4191895 38.4191895,14.975 36.5,14.975 C36.2443101,14.975 35.9950702,14.9473848 35.7550999,14.8949743 L33.5678426,19.7069402 C34.4216344,20.3400884 34.975,21.3554214 34.975,22.5 C34.975,24.4191895 33.4191895,25.975 31.5,25.975 C29.5808105,25.975 28.025,24.4191895 28.025,22.5 C28.025,22.451039 28.0260126,22.4023145 28.0280179,22.3538464 L23.9856409,19.9284202 Z M21.5,19.025 C22.3422342,19.025 23.025,18.3422342 23.025,17.5 C23.025,16.6577658 22.3422342,15.975 21.5,15.975 C20.6577658,15.975 19.975,16.6577658 19.975,17.5 C19.975,18.3422342 20.6577658,19.025 21.5,19.025 Z M36.5,13.025 C37.3422342,13.025 38.025,12.3422342 38.025,11.5 C38.025,10.6577658 37.3422342,9.975 36.5,9.975 C35.6577658,9.975 34.975,10.6577658 34.975,11.5 C34.975,12.3422342 35.6577658,13.025 36.5,13.025 Z M14.5,30.025 C15.3422342,30.025 16.025,29.3422342 16.025,28.5 C16.025,27.6577658 15.3422342,26.975 14.5,26.975 C13.6577658,26.975 12.975,27.6577658 12.975,28.5 C12.975,29.3422342 13.6577658,30.025 14.5,30.025 Z M31.5,24.025 C32.3422342,24.025 33.025,23.3422342 33.025,22.5 C33.025,21.6577658 32.3422342,20.975 31.5,20.975 C30.6577658,20.975 29.975,21.6577658 29.975,22.5 C29.975,23.3422342 30.6577658,24.025 31.5,24.025 Z"/>
    <path fill="#000" d="M22,27.9985023 C22,27.4470447 22.4509752,27 22.990778,27 L27.009222,27 C27.5564136,27 28,27.4474894 28,27.9985023 L28,40 L22,40 L22,27.9985023 Z M32,31.9975446 C32,31.446616 32.4509752,31 32.990778,31 L37.009222,31 C37.5564136,31 38,31.4463114 38,31.9975446 L38,40 L32,40 L32,31.9975446 Z M12,35.9998075 C12,35.4476291 12.4509752,35 12.990778,35 L17.009222,35 C17.5564136,35 18,35.4437166 18,35.9998075 L18,40 L12,40 L12,35.9998075 Z"/>
  </g>
</svg>
