<svg xmlns="http://www.w3.org/2000/svg" width="48" height="48" viewBox="0 0 48 48">
  <g fill="none" fill-rule="evenodd">
    <polyline stroke="#000" stroke-linecap="round" stroke-linejoin="round" stroke-width="1.95" points="8 8 8 40.016 40 40.016"/>
    <path fill="#000" d="M22,19.9987461 C22,19.4471539 22.4509752,19 22.990778,19 L27.009222,19 C27.5564136,19 28,19.4386148 28,19.9987461 L28,40 L22,40 L22,19.9987461 Z M32,15.0032996 C32,14.4491925 32.4509752,14 32.990778,14 L37.009222,14 C37.5564136,14 38,14.4512787 38,15.0032996 L38,40 L32,40 L32,15.0032996 Z M12,26.007484 C12,25.4510659 12.4509752,25 12.990778,25 L17.009222,25 C17.5564136,25 18,25.4489202 18,26.007484 L18,40 L12,40 L12,26.007484 Z"/>
  </g>
</svg>
