<svg xmlns="http://www.w3.org/2000/svg" width="48" height="48" viewBox="0 0 48 48">
  <path d="M24.95,17.0891539 C28.3527845,17.5525537 30.975,20.4700512 30.975,24 C30.975,24.0083368 30.9749854,24.0166701 30.9749561,24.025 L39.0247802,24.025 C38.9822876,16.0721234 32.7827282,9.57653927 24.95,9.06214548 L24.95,17.0891539 Z M23,17.0961475 L23,9.00774962 C15.1681501,9.52237857 8.975,16.0379454 8.975,24 C8.975,32.2980784 15.7019216,39.025 24,39.025 C27.4602353,39.025 30.735052,37.8517089 33.3686023,35.7474606 L27.5978284,29.9766867 C26.5473643,30.6104012 25.3162605,30.975 24,30.975 C20.1478139,30.975 17.025,27.8521861 17.025,24 C17.025,20.4873603 19.6215625,17.5811803 23,17.0961475 Z M40.9353185,25.1692898 C40.6370254,29.548732 38.6637627,33.5836053 35.4726984,36.5112339 C32.3635976,39.3637312 28.306403,40.975 24,40.975 C14.6249664,40.975 7.025,33.3750336 7.025,24 C7.025,14.6249664 14.6249664,7.025 24,7.025 C24.1172364,7.025 24.22964,7.04569169 24.333758,7.08362231 C33.559434,7.28920507 40.975,14.832242 40.975,24.1072772 C40.975,24.4624199 40.9641018,24.8166843 40.9423311,25.1697223 L40.9353185,25.1692898 Z M24,29.025 C26.7752309,29.025 29.025,26.7752309 29.025,24 C29.025,21.2247691 26.7752309,18.975 24,18.975 C21.2247691,18.975 18.975,21.2247691 18.975,24 C18.975,26.7752309 21.2247691,29.025 24,29.025 Z"/>
</svg>
