<svg xmlns="http://www.w3.org/2000/svg" width="48" height="48" viewBox="0 0 48 48">
  <path fill-rule="evenodd" d="M12,18.256 L14.496,18.256 L14.496,22.96 L18.896,18.256 L22.16,18.256 L17.12,23.52 L22.592,29.584 L19.104,29.584 L14.496,24.208 L14.496,29.584 L12,29.584 L12,18.256 Z M23.456,18.256 L27.664,18.256 C28.2506696,18.256 28.8053307,18.3093328 29.328,18.416 C29.8506693,18.5226672 30.3066647,18.7066654 30.696,18.968 C31.0853353,19.2293346 31.3946655,19.5813311 31.624,20.024 C31.8533345,20.4666689 31.968,21.0239966 31.968,21.696 C31.968,22.3573366 31.8613344,22.9119978 31.648,23.36 C31.4346656,23.8080022 31.1413352,24.165332 30.768,24.432 C30.3946648,24.698668 29.9520026,24.8879994 29.44,25 C28.9279974,25.1120006 28.3733363,25.168 27.776,25.168 L25.952,25.168 L25.952,29.584 L23.456,29.584 L23.456,18.256 Z M25.952,23.056 L27.616,23.056 C27.8400011,23.056 28.055999,23.0346669 28.264,22.992 C28.472001,22.9493331 28.6586658,22.8773338 28.824,22.776 C28.9893342,22.6746662 29.1226662,22.5360009 29.224,22.36 C29.3253338,22.1839991 29.376,21.962668 29.376,21.696 C29.376,21.4079986 29.309334,21.1760009 29.176,21 C29.042666,20.8239991 28.872001,20.6880005 28.664,20.592 C28.455999,20.4959995 28.2240013,20.4346668 27.968,20.408 C27.7119987,20.3813332 27.4666678,20.368 27.232,20.368 L25.952,20.368 L25.952,23.056 Z M33.504,18.256 L36,18.256 L36,29.584 L33.504,29.584 L33.504,18.256 Z M23.9752679,38.9836995 L39.6329188,33.1120791 C40.1371111,32.9230069 40.699113,33.1784623 40.8881852,33.6826546 C41.0772573,34.1868469 40.821802,34.7488488 40.3176097,34.9379209 L24.3176134,40.9379209 C24.0968879,41.020693 23.8536482,41.020693 23.6329227,40.937921 L7.63291898,34.937921 C7.12872665,34.7488489 6.87327121,34.186847 7.06234329,33.6826547 C7.25141537,33.1784624 7.81341722,32.9230069 8.31760955,33.112079 L23.9752679,38.9836995 Z M24.0000036,9.04130046 L8.34234529,14.912921 C7.83815295,15.1019931 7.27615111,14.8465376 7.08707903,14.3423453 C6.89800695,13.838153 7.15346238,13.2761511 7.65765471,13.087079 L23.6576584,7.08707903 C23.8783839,7.00430697 24.1216236,7.00430699 24.3423491,7.08707908 L40.3423454,13.0870791 C40.8465377,13.2761512 41.1019931,13.8381531 40.9129209,14.3423454 C40.7238488,14.8465377 40.1618469,15.1019931 39.6576546,14.9129209 L24.0000036,9.04130046 Z"/>
</svg>
