<svg xmlns="http://www.w3.org/2000/svg" width="48" height="48" viewBox="0 0 48 48">
  <path d="M24,40.975 C14.6249664,40.975 7.025,33.3750336 7.025,24 C7.025,14.6249664 14.6249664,7.025 24,7.025 C33.3750336,7.025 40.975,14.6249664 40.975,24 C40.975,33.3750336 33.3750336,40.975 24,40.975 Z M24,39.025 C32.2980784,39.025 39.025,32.2980784 39.025,24 C39.025,15.7019216 32.2980784,8.975 24,8.975 C15.7019216,8.975 8.975,15.7019216 8.975,24 C8.975,32.2980784 15.7019216,39.025 24,39.025 Z M40.9424094,25.0600112 C40.6694209,29.4868404 38.6855736,33.5689752 35.4612059,36.521768 C35.0763705,36.8741904 34.4822791,36.8611373 34.1132941,36.4921523 L23.3105709,25.6894291 C22.6963551,25.0752134 23.1313678,24.025 24,24.025 L39.969258,24.025 C40.5313387,24.025 40.9770054,24.4989962 40.9424094,25.0600112 Z M24.975,24.025 L39.0249797,24.025 C39.025,16.0294754 32.8186664,9.50851775 24.975,9.00612762 L24.975,24.025 Z M24,7.025 C33.3750336,7.025 40.975,14.6249664 40.975,24 C40.975,24.3546871 40.9641085,24.7081355 40.9424094,25.0600112 C40.9107005,25.5742082 40.4844318,25.975 39.969258,25.975 L24,25.975 C23.4615224,25.975 23.025,25.5384776 23.025,25 L23.025,8 C23.025,7.46152237 23.4615224,7.025 24,7.025 Z M39.969258,25 C39.7059093,29.2705088 37.7673884,33.0877592 34.8027232,35.8027232 L24,25 L39.969258,25 L39.969258,25 Z"/>
</svg>
