<svg xmlns="http://www.w3.org/2000/svg" width="48" height="48" viewBox="0 0 48 48">
  <g fill="none" fill-rule="evenodd">
    <polyline stroke="#000" stroke-linecap="round" stroke-linejoin="round" stroke-width="1.95" points="8 8 8 40.016 40 40.016"/>
    <path fill="#000" d="M28.0012539,21 C28.5528461,21 29,21.4509752 29,21.990778 L29,26.009222 C29,26.5564136 28.5613852,27 28.0012539,27 L8,27 L8,21 L28.0012539,21 Z M32.9967004,31 C33.5508075,31 34,31.4509752 34,31.990778 L34,36.009222 C34,36.5564136 33.5487213,37 32.9967004,37 L8,37 L8,31 L32.9967004,31 Z M21.992516,11 C22.5489341,11 23,11.4509752 23,11.990778 L23,16.009222 C23,16.5564136 22.5510798,17 21.992516,17 L8,17 L8,11 L21.992516,11 Z"/>
  </g>
</svg>
